
<svg width="512" height="512" viewBox="0 0 512 512" xmlns="http://www.w3.org/2000/svg">
  <g transform="translate(51.2, 51.2) scale(4.096)">
    <!-- Headphone band -->
    <path d="M10 60 Q10 15, 50 15 Q90 15, 90 60"
          fill="none" stroke="#ffffff" stroke-width="6" stroke-linecap="round"/>
    <!-- Ear cups -->
    <rect x="4" y="52" width="18" height="30" rx="6" fill="#ffffff"/>
    <rect x="78" y="52" width="18" height="30" rx="6" fill="#ffffff"/>
    <!-- Waveform (7 bars, irregular) -->
    <g transform="translate(50, 58)">
      <rect x="-2.5" y="-15" width="5" height="30" rx="2.5" fill="#ffffff"/>
      <rect x="-10" y="-9" width="4" height="18" rx="2" fill="#ffffff"/>
      <rect x="-17" y="-5" width="4" height="10" rx="2" fill="#ffffff"/>
      <rect x="-23" y="-7" width="3.5" height="14" rx="1.75" fill="#ffffff"/>
      <rect x="6" y="-11" width="4" height="22" rx="2" fill="#ffffff"/>
      <rect x="13" y="-6" width="4" height="12" rx="2" fill="#ffffff"/>
      <rect x="20" y="-8" width="3.5" height="16" rx="1.75" fill="#ffffff"/>
    </g>
  </g>
</svg>