
<svg width="400" height="100" viewBox="0 0 400 100" xmlns="http://www.w3.org/2000/svg">
  <!-- Icon -->
  <g transform="translate(10, 10) scale(0.8)">
    <!-- Headphone band -->
    <path d="M10 60 Q10 15, 50 15 Q90 15, 90 60"
          fill="none" stroke="#3b82f6" stroke-width="6" stroke-linecap="round"/>
    <!-- Ear cups -->
    <rect x="4" y="52" width="18" height="30" rx="6" fill="#3b82f6"/>
    <rect x="78" y="52" width="18" height="30" rx="6" fill="#3b82f6"/>
    <!-- Waveform (7 bars, irregular) -->
    <g transform="translate(50, 58)">
      <rect x="-2.5" y="-15" width="5" height="30" rx="2.5" fill="#3b82f6"/>
      <rect x="-10" y="-9" width="4" height="18" rx="2" fill="#3b82f6"/>
      <rect x="-17" y="-5" width="4" height="10" rx="2" fill="#3b82f6"/>
      <rect x="-23" y="-7" width="3.5" height="14" rx="1.75" fill="#3b82f6"/>
      <rect x="6" y="-11" width="4" height="22" rx="2" fill="#3b82f6"/>
      <rect x="13" y="-6" width="4" height="12" rx="2" fill="#3b82f6"/>
      <rect x="20" y="-8" width="3.5" height="16" rx="1.75" fill="#3b82f6"/>
    </g>
  </g>

  <!-- Wordmark -->
  <text x="100" y="62"
        font-family="system-ui, -apple-system, sans-serif"
        font-size="35"
        font-weight="600"
        fill="#1e293b">Read<tspan fill="#3b82f6">Repeat</tspan></text>
</svg>