
<svg width="512" height="512" viewBox="0 0 512 512" xmlns="http://www.w3.org/2000/svg">
  <defs>
    <linearGradient id="bg" x1="0%" y1="0%" x2="100%" y2="100%">
      <stop offset="0%" style="stop-color:#3b82f6"/>
      <stop offset="100%" style="stop-color:#1d4ed8"/>
    </linearGradient>
  </defs>

  

  <g transform="translate(51.2, 51.2) scale(4.096)">
    <!-- Headphone band - thick rounded arc (larger) -->
    <path d="M10 60
             Q10 15, 50 15
             Q90 15, 90 60"
          fill="none" stroke="#3b82f6" stroke-width="6" stroke-linecap="round"/>

    <!-- Left ear cup - rounded rectangle (larger) -->
    <rect x="4" y="52" width="18" height="30" rx="6" fill="#3b82f6"/>

    <!-- Right ear cup - rounded rectangle (larger) -->
    <rect x="78" y="52" width="18" height="30" rx="6" fill="#3b82f6"/>

    <!-- Sound waveform in center (7 bars, irregular sizes) -->
    <g transform="translate(50, 58)">
      <rect x="-2.5" y="-15" width="5" height="30" rx="2.5" fill="#3b82f6"/>
      <rect x="-10" y="-9" width="4" height="18" rx="2" fill="#3b82f6"/>
      <rect x="-17" y="-5" width="4" height="10" rx="2" fill="#3b82f6"/>
      <rect x="-23" y="-7" width="3.5" height="14" rx="1.75" fill="#3b82f6"/>
      <rect x="6" y="-11" width="4" height="22" rx="2" fill="#3b82f6"/>
      <rect x="13" y="-6" width="4" height="12" rx="2" fill="#3b82f6"/>
      <rect x="20" y="-8" width="3.5" height="16" rx="1.75" fill="#3b82f6"/>
    </g>
  </g>
</svg>